<?xml version="1.0" encoding="UTF-8"?>
<svg version="1.1" xmlns="http://www.w3.org/2000/svg" width="500" height="500">
<path d="M0 0 C3.28307568 3.004048 5.35456167 6.0392665 7.50390625 9.92578125 C7.82353333 10.50091965 8.1431604 11.07605804 8.47247314 11.66862488 C9.51109711 13.54532447 10.53792686 15.42809634 11.5625 17.3125 C11.9172641 17.9617041 12.2720282 18.6109082 12.63754272 19.27978516 C28.17502533 47.75126897 41.40930469 77.08104174 48 109 C48.17499023 109.79470703 48.34998047 110.58941406 48.53027344 111.40820312 C57.35350277 152.46679507 49.16935114 197.07360916 26.5625 232.375 C1.95070293 269.63109439 -32.08178711 290.29436559 -72.875 306.6875 C-104.37610762 319.3503171 -137.67581804 335.07001264 -152.31640625 367.95703125 C-154.43033425 373.53436895 -155.84984736 379.15339074 -157 385 C-157.33 385 -157.66 385 -158 385 C-158.8448042 352.8844435 -151.8242744 325.02189187 -138 296 C-137.62568848 295.20352051 -137.25137695 294.40704102 -136.86572266 293.58642578 C-131.7562319 282.8599091 -125.51789652 272.93241667 -118.9375 263.0625 C-118.56222168 262.49954224 -118.18694336 261.93658447 -117.80029297 261.35656738 C-112.45277571 253.36861118 -106.83882496 245.63386673 -101 238 C-100.48993408 237.33137939 -99.97986816 236.66275879 -99.4543457 235.97387695 C-93.9559454 228.81281419 -88.24801749 221.8653008 -82.34057617 215.03955078 C-79.33766368 211.56936698 -76.39130998 208.06455725 -73.5 204.5 C-70.1218112 200.34269739 -66.67745222 196.25081351 -63.1875 192.1875 C-62.68162354 191.59839844 -62.17574707 191.00929688 -61.65454102 190.40234375 C-59.09426465 187.42499597 -56.5270048 184.45387442 -53.953125 181.48828125 C-47.56256426 174.10804105 -41.40024492 166.59365664 -35.44042969 158.86132812 C-33.94211087 156.92519547 -32.4287615 155.00146243 -30.9140625 153.078125 C-24.79442701 145.25532621 -19.01889806 137.25901453 -13.5 129 C-12.92467529 128.14011475 -12.34935059 127.28022949 -11.7565918 126.39428711 C-8.23789821 121.06329326 -5.01324753 115.63198409 -2 110 C-8.95611302 116.80485744 -8.95611302 116.80485744 -15.5 124 C-18.98452107 128.07623219 -22.78081981 131.79550873 -26.59375 135.5625 C-28.65449345 137.65000635 -30.59515626 139.77169223 -32.5 142 C-35.98212976 146.07343481 -39.77555426 149.79035118 -43.5859375 153.5546875 C-46.28751294 156.29123479 -48.79078735 159.14979366 -51.2890625 162.0703125 C-53.11799863 164.13308521 -55.03580458 166.0659072 -57 168 C-59.55869259 170.51955389 -61.98170611 173.08118782 -64.3125 175.8125 C-67.22252445 179.20197928 -70.32186998 182.36422361 -73.5 185.5 C-77.13852061 189.09529187 -80.61578326 192.75891312 -83.93359375 196.65234375 C-86.23970003 199.2723246 -88.6241123 201.80707492 -91.01928711 204.34545898 C-96.52951961 210.18626194 -101.86702245 216.07452079 -106.87890625 222.35546875 C-109.09525521 225.11876202 -111.38809729 227.80556214 -113.6875 230.5 C-130.69413845 250.9606999 -144.05522029 272.77457485 -155 297 C-155.66 297 -156.32 297 -157 297 C-169.54136293 256.12916244 -167.90881956 203.74680028 -148.12109375 165.2578125 C-144.17331371 157.91267345 -139.58546666 151.20395956 -134 145 C-133.34185303 144.26813477 -133.34185303 144.26813477 -132.67041016 143.52148438 C-117.21684918 126.59791197 -97.60709267 115.46302847 -78 104 C-45.94057966 85.20478887 -12.72674877 65.39467075 -1.1875 27.625 C0.93354883 18.64033247 0.25124139 9.16837795 0 0 Z " fill="#10B981" transform="translate(397,70)"/>
<path d="M0 0 C1.3568814 2.71376279 0.94922105 4.71996599 0.8125 7.75 C0.7213676 24.26319143 7.97887997 37.65223458 19.22265625 49.22265625 C20.13917969 50.13917969 21.05570313 51.05570313 22 52 C22.72058594 52.72058594 23.44117188 53.44117188 24.18359375 54.18359375 C34.40142998 63.78333781 46.83872972 70.54358173 58.9375 77.4375 C73.02557386 85.47532027 86.30680331 93.66561982 98 105 C98.69351563 105.62003906 99.38703125 106.24007812 100.1015625 106.87890625 C118.27070285 123.68009974 124.14997249 151.21691079 125.12426758 175.03833008 C125.53193258 192.26754031 124.93115758 208.42702257 120 225 C119.34 225 118.68 225 118 225 C117.77449463 224.49774902 117.54898926 223.99549805 117.31665039 223.47802734 C105.20598094 196.70578905 87.81081267 174.45522339 67.8515625 153.0703125 C65.27795756 150.31078827 62.75856379 147.50640158 60.25 144.6875 C56.91873404 140.96538154 53.45363961 137.42873011 49.89453125 133.92578125 C48.03189301 132.03241908 46.29165445 130.07785932 44.5625 128.0625 C41.99334729 125.07198284 39.30682744 122.26883316 36.5 119.5 C33.73439592 116.77170593 31.08712969 114.01483166 28.5625 111.0625 C25.06183648 106.97703886 21.25826367 103.24105338 17.4296875 99.46484375 C14.66026167 96.65534584 12.09048026 93.72447248 9.5703125 90.69140625 C7.86534632 88.85496258 6.04185098 87.44520621 4 86 C18.0581246 107.57688577 33.76473668 127.35048264 50.57763672 146.82763672 C56.09766768 153.22402608 61.58908969 159.62161393 66.81640625 166.26171875 C68.53070685 168.41149464 70.26741417 170.53250742 72.02734375 172.64453125 C79.30921412 181.4139914 85.92143113 190.3594672 92 200 C92.37044434 200.57476074 92.74088867 201.14952148 93.12255859 201.74169922 C110.93484753 229.44534296 121.47305673 258.93859098 121 292 C118.47925268 289.47925268 118.2231949 287.56174003 117.3125 284.125 C111.45899777 264.72726268 97.24392409 252.18164747 79.89208984 242.86865234 C71.2840468 238.4606032 62.38536643 234.72336535 53.46044922 231.01293945 C18.42686352 216.43484439 18.42686352 216.43484439 5 204 C4.22914062 203.35675781 3.45828125 202.71351563 2.6640625 202.05078125 C-20.60483925 182.47472569 -34.26855521 152.76205873 -38 123 C-41.06039018 79.65122824 -24.79588853 38.30003248 -2 2 C-1.34 1.34 -0.68 0.68 0 0 Z " fill="#27BF8D" transform="translate(96,94)"/>
<path d="M0 0 C-0.433125 1.051875 -0.433125 1.051875 -0.875 2.125 C-1.24625 3.07375 -1.6175 4.0225 -2 5 C-2.37125 5.845625 -2.7425 6.69125 -3.125 7.5625 C-6.54305611 20.99057758 -1.97996655 33.34560613 4.79052734 44.90087891 C7.64609472 49.60408906 10.83388256 54.01924571 14.12109375 58.42578125 C24.45695475 72.58655547 30.23741474 87.46542939 27.69970703 105.08496094 C24.90809791 119.88582358 18.97046768 134.56719706 9 146 C8.01 146 7.02 146 6 146 C5.98582031 144.96746094 5.97164062 143.93492187 5.95703125 142.87109375 C5.3314735 119.59445202 -1.95283486 97.95963274 -9.3125 76.0625 C-10.15931923 73.51837855 -11.00254804 70.97307215 -11.84570312 68.42773438 C-13.88480539 62.28099498 -15.93695574 56.13874253 -18 50 C-16.47611471 64.3521647 -12.45534725 78.00865445 -8.6706543 91.89794922 C-3.97776212 109.18345703 0.6996996 126.75131924 0.375 144.8125 C0.36557373 145.67866943 0.35614746 146.54483887 0.34643555 147.43725586 C0.05980148 159.78992801 -2.72263721 170.79864103 -8 182 C-9.10505337 178.6848399 -8.96706816 176.47569478 -8.8125 173 C-8.74183882 157.06590426 -18.14617213 145.68896074 -28.65356445 134.69946289 C-45.31953486 117.20230527 -54.62089808 98.83958443 -54.2109375 74.19140625 C-53.32372975 50.27513303 -39.68625954 31.85263118 -22.875 16.0625 C-18.40979262 12.07864831 -13.74829618 8.43218163 -8.9375 4.875 C-8.28185059 4.389104 -7.62620117 3.90320801 -6.95068359 3.40258789 C-2.25325108 0 -2.25325108 0 0 0 Z " fill="#27BF8D" transform="translate(236,69)"/>
</svg>
